<!DOCTYPE svg PUBLIC "-//W3C//DTD SVG 20010904//EN" "http://www.w3.org/TR/2001/REC-SVG-20010904/DTD/svg10.dtd">
<svg version="1.0" xmlns="http://www.w3.org/2000/svg" width="1514px" height="979px" viewBox="0 0 15140 9790" preserveAspectRatio="xMidYMid meet">
<g id="layer1" fill="#382810" stroke="none">
 <path d="M1828 9783 l-1818 -3 0 -4183 c0 -2300 -3 -4334 -7 -4519 l-6 -338 87 0 86 0 20 33 c31 50 24 61 -45 67 l-60 5 0 265 0 265 90 0 90 0 3 -165 c1 -91 5 -171 7 -179 9 -23 29 3 61 79 23 52 30 85 34 165 l5 100 38 3 c32 3 39 8 52 40 9 20 13 42 11 48 -3 7 -26 14 -53 16 l-48 3 0 45 0 45 50 0 c46 0 50 -2 53 -25 7 -51 22 -44 53 26 17 38 38 73 46 77 10 6 11 12 4 21 -6 7 -12 83 -13 177 l-3 164 -105 5 -105 5 0 3675 0 3675 1748 3 1748 2 21 36 c12 21 26 33 34 30 19 -7 26 9 10 23 -9 8 -516 10 -1837 8 l-1824 -2 -5 -3725 -5 -3725 -80 0 -80 0 0 3840 0 3840 1952 5 c1478 4 1955 8 1964 17 7 7 9 22 5 37 l-6 26 -178 -2 c-97 -2 -995 -4 -1994 -5z m-1353 -7983 l0 -115 -100 -5 -100 -5 -5 -95 -5 -95 -90 0 -90 0 -3 205 c-1 112 0 210 3 217 3 11 46 13 197 11 l193 -3 0 -115z"/>
 <path d="M3945 9460 c-8 -13 20 -24 41 -16 20 8 9 26 -16 26 -10 0 -22 -5 -25 -10z"/>
 </g>
<g id="layer2" fill="#4d3818" stroke="none">
 <path d="M2 5478 l3 -4313 2 4307 3 4308 1828 3 1827 2 -1832 3 -1833 2 2 -4312z"/>
 <path d="M3980 9780 c0 -5 -10 -10 -23 -10 -12 0 -28 -9 -35 -20 -7 -12 -17 -18 -22 -15 -6 3 -10 0 -10 -8 0 -11 14 -14 56 -13 l57 1 2 38 c2 26 -1 37 -11 37 -8 0 -14 -4 -14 -10z"/>
 <path d="M3839 9458 c-6 -13 -20 -33 -31 -44 -11 -12 -16 -24 -11 -27 4 -2 53 -4 108 -3 l100 1 0 45 0 45 -77 3 c-71 3 -78 1 -89 -20z"/>
 <path d="M553 1663 c-22 -18 -73 -129 -73 -158 0 -9 -9 -28 -20 -43 -11 -15 -21 -38 -22 -52 -3 -23 1 -25 47 -30 l50 -5 3 -240 c1 -136 7 -244 12 -249 6 -6 21 15 42 60 32 66 33 75 38 219 l5 150 58 3 c56 3 59 5 72 36 8 20 24 36 37 39 49 13 -2 26 -112 29 l-115 3 0 75 0 75 143 3 143 3 15 36 c11 26 12 39 4 47 -7 7 -67 12 -159 14 -131 3 -149 1 -168 -15z"/>
 <path d="M343 1188 c-5 -7 -23 -42 -38 -78 -24 -53 -30 -84 -35 -165 l-5 -100 -33 -3 c-25 -3 -38 -12 -53 -35 -29 -48 -22 -61 36 -67 l50 -5 5 -265 c3 -164 9 -265 15 -265 5 0 12 16 16 35 3 19 18 64 34 100 26 60 28 79 34 230 l6 165 65 5 c56 4 66 8 77 30 7 14 12 34 11 45 -3 17 -12 21 -78 25 l-75 5 -3 170 c-2 165 -8 200 -29 173z"/>
 </g>
<g id="layer3" fill="#5d431e" stroke="none">
 <path d="M1211 2136 c-16 -18 -5 -42 13 -27 6 5 29 11 51 13 55 4 51 22 -6 26 -31 2 -50 -2 -58 -12z"/>
 <path d="M835 1671 c-3 -6 2 -14 11 -19 13 -7 14 -13 5 -31 -7 -12 -9 -26 -6 -31 3 -6 40 -10 81 -10 l74 0 17 35 c25 53 9 65 -93 65 -45 0 -85 -4 -89 -9z"/>
 <path d="M782 1413 c-23 -5 -57 -66 -46 -84 3 -5 39 -9 80 -9 l74 0 17 35 c14 29 22 34 57 37 23 2 41 8 41 13 0 10 -179 17 -223 8z"/>
 <path d="M602 1027 c-16 -20 -62 -135 -62 -155 0 -11 -9 -26 -19 -33 -10 -8 -22 -31 -25 -52 -6 -33 -4 -38 18 -47 24 -9 25 -13 28 -102 2 -51 7 -93 12 -93 9 0 126 259 126 278 0 4 -11 12 -25 17 -24 9 -25 13 -25 99 0 88 -8 113 -28 88z"/>
 <path d="M346 473 c-3 -3 -6 -17 -6 -30 0 -13 -14 -56 -31 -96 -28 -66 -32 -84 -36 -209 l-6 -138 31 0 c27 0 35 6 52 40 18 35 20 58 20 234 0 177 -5 218 -24 199z"/>
 </g>
<g id="layer4" fill="#624720" stroke="none">
 <path d="M1204 2135 c-2 -5 -5 -109 -6 -230 l-3 -220 -99 -5 -99 -5 -1 -45 -1 -45 95 -3 c66 -2 100 1 112 10 9 7 31 47 49 88 32 71 34 83 39 220 l5 145 52 3 c41 2 56 8 68 25 20 29 19 54 -4 67 -25 13 -202 9 -207 -5z"/>
 <path d="M953 1413 c-66 -6 -101 -73 -48 -93 l25 -9 2 -183 c2 -114 7 -183 13 -183 6 0 11 11 13 25 2 14 17 58 33 97 28 70 29 78 27 210 -2 81 -7 137 -13 138 -5 1 -29 0 -52 -2z"/>
 <path d="M656 818 c-8 -13 -37 -78 -65 -144 -54 -129 -65 -200 -36 -224 9 -8 15 -36 17 -83 l3 -72 42 -3 c39 -3 44 0 55 25 6 15 18 36 26 45 13 16 12 19 -12 28 -39 14 -32 51 11 62 22 6 38 19 49 39 20 39 7 57 -44 61 -37 3 -37 3 -37 48 l0 45 73 3 72 3 43 90 c24 49 41 92 38 94 -2 3 -53 5 -112 5 -102 0 -109 -1 -123 -22z"/>
 <path d="M341 75 c-5 -5 -13 -25 -19 -42 l-11 -33 112 0 112 0 14 31 c7 17 10 34 5 39 -13 12 -204 17 -213 5z"/>
 </g>
<g id="layer5" fill="#725326" stroke="none">
 <path d="M1387 2144 c-4 -4 -3 -12 3 -19 5 -6 8 -24 7 -41 l-2 -29 138 -3 138 -3 15 37 c11 27 12 40 4 48 -12 12 -291 22 -303 10z"/>
 <path d="M1263 1768 c-6 -7 -23 -42 -38 -78 -15 -36 -33 -72 -41 -81 -13 -14 -13 -18 0 -28 10 -9 16 -36 18 -84 l3 -72 96 -3 c69 -2 99 1 106 10 5 7 22 42 37 78 20 49 26 79 24 115 l-3 50 -85 5 -85 5 -3 40 c-4 46 -14 61 -29 43z m112 -218 c0 -22 -5 -25 -38 -28 -26 -2 -39 1 -43 12 -12 31 4 47 43 44 33 -3 38 -6 38 -28z"/>
 <path d="M1224 1257 c-9 -24 1 -257 11 -257 6 -1 13 16 16 37 3 21 23 76 43 122 20 47 34 91 32 98 -7 18 -95 18 -102 0z"/>
 <path d="M970 1085 c-21 -47 -32 -90 -37 -153 -7 -76 -11 -87 -28 -90 -11 -2 -27 -10 -36 -18 -22 -20 -72 -141 -66 -158 4 -9 23 -16 49 -18 l43 -3 0 -45 0 -45 -84 -5 c-79 -5 -85 -7 -86 -27 -1 -13 -10 -32 -20 -43 -23 -26 -14 -29 100 -32 89 -3 90 -3 90 -28 0 -25 -1 -25 -90 -27 -49 -2 -100 -5 -112 -8 -23 -5 -58 -69 -47 -86 9 -15 270 -11 282 4 5 6 29 57 51 111 23 54 49 105 59 112 14 11 15 13 2 17 -53 17 -50 12 -50 106 0 70 3 90 15 95 13 4 15 36 15 200 0 121 -4 197 -10 201 -6 4 -23 -23 -40 -60z"/>
 <path d="M536 58 c-9 -12 -16 -30 -16 -40 0 -16 12 -18 140 -18 l139 0 16 30 c9 17 13 35 10 40 -4 6 -64 10 -140 10 -127 0 -135 -1 -149 -22z"/>
 </g>
<g id="layer6" fill="#825f2c" stroke="none">
 <path d="M1646 2141 c-4 -5 1 -14 10 -19 14 -8 14 -13 4 -32 -16 -30 -5 -38 55 -42 l50 -3 5 -163 c3 -97 9 -163 15 -163 6 -1 25 32 42 72 32 73 33 76 30 214 l-2 140 -102 3 c-58 1 -104 -1 -107 -7z"/>
 <path d="M1443 1568 c-32 -42 -58 -129 -63 -208 -5 -83 -6 -85 -32 -88 -34 -4 -38 -9 -83 -112 l-38 -85 -6 -260 -6 -260 -98 -5 c-89 -4 -101 -7 -118 -29 -10 -13 -19 -30 -19 -38 0 -8 -16 -48 -36 -89 -20 -41 -33 -81 -30 -89 4 -12 31 -15 141 -15 l135 0 17 35 c26 54 11 64 -110 67 -100 3 -101 3 -108 31 l-7 27 138 0 139 0 23 48 c22 45 23 60 28 357 l5 310 30 0 30 0 3 -180 c1 -99 7 -184 12 -189 6 -6 21 16 42 60 30 63 33 80 38 189 l5 120 45 5 c41 5 47 9 63 44 10 21 15 42 10 47 -4 4 -33 9 -63 11 l-55 3 0 70 0 70 98 3 98 3 15 36 c25 58 18 62 -103 65 -99 3 -108 5 -111 23 -5 28 -17 38 -29 23z"/>
 <path d="M805 70 c-4 -6 -10 -24 -15 -40 l-9 -30 143 0 144 0 12 29 c6 17 9 35 5 40 -8 15 -271 15 -280 1z"/>
 </g>
<g id="layer7" fill="#906931" stroke="none">
 <path d="M1808 1814 c-28 -61 -33 -82 -38 -179 l-5 -110 -40 -5 c-35 -4 -42 -10 -58 -44 -11 -23 -15 -42 -9 -48 5 -5 51 -7 103 -6 l94 3 3 219 c1 137 -1 223 -8 230 -6 6 -20 -13 -42 -60z"/>
 <path d="M1564 1234 c-26 -62 -23 -64 151 -64 l156 0 15 36 c26 62 23 64 -151 64 l-156 0 -15 -36z"/>
 <path d="M1443 938 c-6 -7 -23 -41 -37 -76 -24 -56 -26 -74 -24 -165 l3 -102 120 0 120 0 14 30 c8 17 21 35 30 42 23 17 3 22 -104 25 l-90 3 -3 120 c-3 119 -9 147 -29 123z"/>
 <path d="M1264 526 c-28 -62 -24 -80 17 -74 21 3 24 9 27 57 5 80 -12 86 -44 17z"/>
 <path d="M1189 388 c0 -2 -2 -14 -4 -28 -2 -14 -5 -34 -7 -45 -3 -19 3 -20 156 -20 l160 0 19 33 c35 59 27 62 -158 62 -91 0 -165 -1 -166 -2z"/>
 <path d="M1073 68 c-6 -7 -13 -25 -17 -41 l-6 -27 160 0 159 0 16 30 c9 17 13 35 10 40 -10 15 -310 13 -322 -2z"/>
 </g>
<g id="layer8" fill="#a87b3a" stroke="none">
 <path d="M1886 1263 c-19 -19 -36 -76 -26 -88 7 -8 9 -97 8 -246 l-3 -234 -107 -5 c-118 -6 -137 -14 -141 -66 l-2 -29 130 -5 130 -5 5 -55 c5 -52 7 -55 34 -58 16 -2 34 2 40 8 7 7 13 75 16 183 l5 172 60 5 c54 5 61 8 78 38 27 47 12 60 -71 64 l-67 3 -5 160 -5 160 -35 3 c-20 2 -39 -1 -44 -5z"/>
 <path d="M1500 358 c-38 -62 -37 -63 185 -63 163 0 199 3 197 14 -5 25 9 50 31 53 12 2 22 8 22 13 0 6 -78 11 -208 13 l-207 2 -20 -32z"/>
 <path d="M1369 53 c-5 -16 -12 -34 -14 -40 -3 -10 38 -13 188 -13 l193 0 17 30 c10 17 15 35 12 40 -4 6 -80 10 -196 10 l-189 0 -11 -27z"/>
 </g>
<g id="layer9" fill="#ba8537" stroke="none">
 <path d="M15132 1778 c-1 -9 -8 -23 -16 -31 -8 -8 -23 -32 -33 -53 -17 -36 -18 -91 -23 -824 l-5 -785 -325 -5 -325 -5 -17 -35 -18 -35 382 -3 c209 -1 383 -1 385 1 2 2 2 406 0 898 -1 492 -3 886 -5 877z"/>
 <path d="M14820 1064 l-31 -69 -7 -300 -7 -300 -210 -5 c-130 -3 -210 -9 -210 -15 0 -6 35 -11 78 -13 l78 -3 -3 -32 -3 -32 180 0 180 0 3 409 c1 258 -1 413 -8 420 -6 6 -20 -15 -40 -60z"/>
 <path d="M2099 939 c-4 -20 -9 -48 -11 -69 -3 -24 -1 -25 65 -28 l68 -3 15 37 c11 26 12 40 5 47 -10 10 -140 24 -142 16z"/>
 <path d="M1943 536 c-25 -53 -14 -66 56 -66 l61 0 20 40 c11 23 18 45 15 50 -3 6 -35 10 -71 10 -63 0 -65 -1 -81 -34z"/>
 <path d="M1900 381 c-14 -4 -31 -19 -38 -34 -21 -43 -2 -59 67 -55 50 3 57 6 74 36 11 19 16 37 11 42 -13 12 -85 19 -114 11z"/>
 <path d="M1734 45 c-7 -19 -14 -37 -14 -40 0 -3 31 -5 70 -5 67 0 70 1 85 30 9 17 13 35 10 40 -3 6 -35 10 -71 10 -65 0 -65 0 -80 -35z"/>
 </g>
<g id="layer10" fill="#be8c42" stroke="none">
 <path d="M2196 931 c-4 -5 1 -14 10 -19 13 -7 14 -13 6 -28 -6 -10 -16 -19 -24 -19 -7 0 -14 -4 -15 -10 -2 -5 5 -10 15 -10 15 0 17 -13 17 -135 l0 -135 -63 -3 c-60 -3 -63 -4 -79 -37 -29 -60 -19 -66 114 -63 l118 3 0 230 0 230 -47 3 c-25 2 -49 -1 -52 -7z"/>
 <path d="M1945 380 c-4 -7 1 -14 14 -17 16 -4 20 -12 18 -37 l-2 -31 128 -3 127 -3 17 36 c13 28 14 38 4 48 -16 17 -296 23 -306 7z"/>
 <path d="M1859 53 c-5 -16 -12 -34 -14 -40 -3 -10 27 -13 129 -13 130 0 133 0 146 24 26 50 12 56 -125 56 l-125 0 -11 -27z"/>
 </g>
<g id="layer11" fill="#d19236" stroke="none">
 <path d="M15132 5829 c-1 -9 -10 -25 -20 -37 -14 -16 -22 -18 -30 -10 -8 8 -13 8 -17 -3 -10 -27 0 -4144 10 -4143 12 1 27 32 49 99 15 45 16 238 14 2080 -2 1117 -4 2023 -6 2014z"/>
 <path d="M14846 5363 c-3 -3 -6 -50 -6 -102 0 -85 -4 -105 -30 -168 l-30 -71 2 -2099 c2 -1390 6 -2098 13 -2098 6 0 13 38 16 85 4 60 13 103 32 147 l27 63 0 2119 c0 1173 -4 2122 -9 2125 -4 3 -11 3 -15 -1z"/>
 <path d="M12658 384 c-17 -16 7 -24 73 -24 62 0 70 -2 67 -17 -2 -12 -15 -20 -41 -23 -21 -3 -39 -9 -40 -15 -1 -7 305 -11 900 -13 l903 -2 15 37 c11 26 12 40 5 47 -13 13 -1870 23 -1882 10z"/>
 <path d="M12674 45 c-7 -19 -14 -37 -14 -40 0 -3 389 -5 864 -5 l864 0 17 26 c37 57 81 54 -855 54 l-861 0 -15 -35z"/>
 </g>
<g id="layer12" fill="#cc9647" stroke="none">
 <path d="M2205 381 c-3 -6 1 -13 8 -18 8 -4 13 -21 13 -38 l-1 -30 124 0 125 0 19 33 c32 55 17 62 -144 62 -76 0 -140 -4 -144 -9z"/>
 <path d="M2104 45 c-7 -19 -14 -37 -14 -40 0 -3 58 -5 130 -5 l129 0 16 30 c9 17 13 35 10 40 -4 6 -61 10 -131 10 l-125 0 -15 -35z"/>
 </g>
<g id="layer13" fill="#e39f3a" stroke="none">
 <path d="M15112 9039 c-12 -5 -27 -20 -33 -33 -8 -17 -21 -26 -43 -28 -36 -3 -38 -20 -4 -28 l23 -6 0 -389 0 -390 -90 0 -90 0 -3 140 c-1 77 -7 144 -12 149 -6 6 -18 -9 -32 -40 l-22 -49 -6 30 c-11 63 -25 27 -28 -73 -2 -80 -6 -104 -18 -109 -8 -3 -21 -20 -29 -39 -13 -31 -16 -33 -72 -36 -65 -3 -74 -20 -16 -28 l38 -5 5 -225 5 -225 45 -5 45 -5 3 -1310 c1 -822 6 -1313 12 -1319 6 -6 21 15 42 60 l32 69 6 1250 5 1250 90 0 90 0 5 -960 c3 -528 9 -966 13 -973 11 -17 37 3 37 28 0 10 7 34 15 54 13 31 15 232 13 1644 l-3 1609 -23 -8z m-57 -1134 l0 -150 -135 0 -135 0 -3 140 c-1 76 0 145 3 152 3 11 34 13 137 11 l133 -3 0 -150z"/>
 <path d="M11131 381 c-8 -5 -16 -21 -18 -35 -3 -21 3 -28 34 -41 28 -12 43 -14 55 -6 10 7 19 7 23 1 7 -12 94 -10 101 2 3 5 11 5 18 -1 18 -15 1451 -10 1466 5 6 6 12 24 13 40 l2 29 -90 6 c-49 4 -367 7 -706 8 -610 1 -616 1 -635 -20 l-18 -20 -8 20 c-10 27 -63 29 -77 4 -8 -15 -13 -16 -30 -6 -17 11 -22 10 -30 -5 -10 -17 -12 -15 -15 11 -1 15 -65 21 -85 8z"/>
 <path d="M11115 71 c-3 -5 -1 -13 5 -16 8 -5 7 -11 -1 -21 -9 -11 -6 -16 16 -24 17 -6 295 -10 783 -10 l758 0 17 30 c10 17 15 35 12 40 -9 15 -1478 13 -1511 -2 -18 -9 -28 -8 -36 0 -14 14 -35 16 -43 3z m85 -51 c-8 -5 -24 -9 -35 -9 -16 1 -16 2 5 9 35 11 48 11 30 0z"/>
 </g>
<g id="layer14" fill="#dda34d" stroke="none">
 <path d="M11117 9743 c-10 -10 13 -33 34 -33 26 0 33 17 10 29 -23 13 -35 14 -44 4z"/>
 <path d="M11115 9470 c-8 -12 20 -24 35 -15 6 3 8 11 5 16 -8 12 -32 12 -40 -1z"/>
 <path d="M2479 388 c-3 -9 -9 -47 -11 -68 l-3 -25 180 -3 c99 -1 190 0 202 3 23 5 58 69 47 86 -4 8 -412 14 -415 7z"/>
 <path d="M3865 380 c-3 -5 0 -13 8 -16 23 -8 82 0 82 11 0 14 -82 19 -90 5z"/>
 <path d="M11166 371 c-8 -12 30 -59 54 -66 25 -8 41 1 33 21 -7 19 -80 57 -87 45z"/>
 <path d="M3929 343 c-15 -2 -35 -13 -44 -23 -16 -17 -16 -20 -2 -26 8 -3 24 -1 36 5 11 6 33 11 50 11 16 0 32 4 36 9 6 10 -26 32 -42 30 -4 -1 -20 -4 -34 -6z"/>
 <path d="M2349 53 c-5 -16 -12 -34 -14 -40 -3 -10 41 -13 200 -13 l204 0 16 30 c9 17 13 35 10 40 -4 6 -88 10 -206 10 l-199 0 -11 -27z"/>
 <path d="M3935 71 c-7 -13 17 -24 40 -19 9 1 16 8 16 13 0 14 -48 19 -56 6z"/>
 <path d="M11185 56 c-14 -21 -20 -24 -37 -15 -13 7 -24 7 -30 1 -6 -6 0 -12 17 -16 29 -7 99 21 97 39 -2 21 -31 15 -47 -9z"/>
 </g>
<g id="layer15" fill="#f1a93e" stroke="none">
 <path d="M14215 9760 c-9 -17 -13 -35 -10 -40 4 -6 114 -10 281 -10 171 0 274 -4 274 -10 0 -6 -64 -11 -157 -12 l-158 -3 -5 -170 -5 -170 -209 -5 -209 -5 -1 -40 c-1 -40 -1 -40 44 -47 25 -3 117 -7 205 -8 88 -1 178 -4 200 -8 l40 -7 0 -85 0 -85 -190 -5 -190 -5 0 -335 0 -335 235 0 235 0 5 285 5 285 80 0 80 0 5 -317 c4 -225 9 -321 18 -330 9 -9 19 4 44 58 l33 69 5 260 5 260 90 6 c50 4 95 4 102 2 7 -3 20 11 30 31 9 20 20 36 25 36 4 0 8 7 8 15 0 12 -23 15 -127 17 l-128 3 -3 368 -2 367 -320 0 -319 0 -16 -30z m550 -300 l0 -125 -100 0 c-55 1 -108 4 -117 8 -16 6 -18 21 -18 120 0 63 3 117 7 121 4 3 57 5 117 4 l111 -3 0 -125z m0 -320 l0 -85 -80 0 -80 0 -3 74 c-2 41 -1 80 2 88 4 11 24 13 83 11 l78 -3 0 -85z m-260 -430 l0 -235 -145 0 -145 0 -3 225 c-1 123 0 230 3 238 3 10 37 12 147 10 l143 -3 0 -235z"/>
 <path d="M13897 9094 c-4 -4 -7 -29 -7 -55 0 -61 -18 -103 -36 -88 -23 19 -27 -14 -20 -137 8 -150 1 -192 -32 -201 -14 -3 -33 -1 -43 5 -13 8 -20 8 -26 -1 -19 -24 -53 -116 -53 -142 0 -18 -7 -28 -24 -35 -18 -6 -23 -14 -19 -28 3 -12 -4 -28 -18 -41 -24 -22 -19 -27 31 -33 25 -3 25 -3 25 -113 l0 -110 165 -5 165 -5 0 -145 0 -145 -230 0 -230 0 -6 128 c-4 72 -11 133 -18 140 -8 8 -19 -8 -43 -59 -31 -66 -33 -74 -33 -189 l0 -120 325 0 325 0 5 195 5 195 285 5 c270 6 286 5 301 -13 12 -15 17 -16 26 -5 19 25 44 101 36 109 -5 5 -153 10 -328 11 l-320 3 -5 110 -5 110 -165 5 -165 5 0 35 0 35 75 5 75 5 3 279 c2 256 -2 309 -21 290z m108 -819 l0 -60 -120 0 -120 0 -3 49 c-5 79 -8 77 125 74 l118 -3 0 -60z"/>
 <path d="M13514 8197 c-7 -20 -2 -47 11 -50 14 -3 19 43 6 56 -7 7 -12 6 -17 -6z"/>
 <path d="M11187 379 c-85 -10 -89 -22 -20 -56 51 -26 70 -30 160 -32 94 -2 102 -1 113 18 6 12 8 21 5 21 -3 0 -1 9 4 19 8 14 7 22 -2 30 -14 11 -163 11 -260 0z"/>
 <path d="M11143 64 c-39 -17 -40 -22 -10 -34 l22 -9 -22 0 c-13 -1 -23 -6 -23 -11 0 -6 52 -10 143 -9 78 1 138 3 132 4 -5 2 -23 6 -39 10 -26 5 -27 7 -11 19 15 11 15 13 1 25 -22 18 -93 26 -110 12 -10 -8 -16 -9 -21 -1 -8 13 -22 12 -62 -6z"/>
 <path d="M11362 45 c-9 -20 -9 -25 2 -25 7 0 18 11 24 25 9 20 9 25 -2 25 -7 0 -18 -11 -24 -25z"/>
 </g>
<g id="layer16" fill="#f8b147" stroke="none">
 <path d="M11112 9753 l3 -38 995 -3 c547 -1 1001 -4 1008 -7 9 -3 12 -32 10 -112 l-3 -108 -997 -5 c-718 -4 -1000 -8 -1008 -16 -6 -6 -10 -27 -8 -45 l3 -34 1002 -3 c993 -2 1002 -2 1013 -22 10 -20 19 -20 213 -18 l202 3 5 180 5 180 330 3 c181 1 333 6 337 10 5 5 12 23 17 40 l10 32 -1570 0 -1570 0 3 -37z m2343 -178 l0 -130 -115 0 -115 0 -3 119 c-1 66 0 126 2 133 4 11 31 13 118 11 l113 -3 0 -130z"/>
 <path d="M13837 9333 c-9 -9 -8 -367 1 -418 4 -22 12 -40 17 -40 5 0 19 21 31 46 17 35 24 75 31 180 l8 134 88 5 c86 5 123 22 59 28 -28 3 -32 6 -27 23 13 39 -11 49 -110 49 -50 0 -95 -3 -98 -7z"/>
 <path d="M13175 9188 c-3 -7 -4 -159 -3 -338 l3 -325 245 -5 245 -5 5 -45 c5 -48 23 -61 28 -20 1 14 12 51 24 82 21 54 24 57 60 60 47 4 55 22 11 26 l-33 3 -2 287 -3 287 -288 3 c-226 2 -289 0 -292 -10z m490 -328 l0 -235 -195 0 -195 0 -3 225 c-1 123 0 230 3 237 3 11 47 13 197 11 l193 -3 0 -235z"/>
 <path d="M13835 8788 c-9 -24 -1 -128 10 -131 13 -3 19 123 6 136 -7 7 -12 5 -16 -5z"/>
 <path d="M13447 8433 c-12 -11 -8 -501 3 -508 6 -4 21 17 34 46 14 32 26 48 30 41 19 -30 25 10 25 153 0 85 2 159 6 165 3 5 20 10 36 10 41 0 68 16 80 47 17 44 -2 53 -111 53 -53 0 -100 -3 -103 -7z"/>
 <path d="M13675 8348 c-9 -22 -2 -68 10 -71 14 -3 19 63 6 76 -7 7 -12 5 -16 -5z"/>
 <path d="M2868 363 c-6 -15 -18 -36 -26 -45 -12 -15 -13 -18 -1 -23 8 -3 273 -4 589 -3 l575 3 0 45 0 45 -562 3 -563 3 -12 -28z"/>
 <path d="M11118 383 c-2 -5 -3 -26 -3 -48 l0 -40 49 -3 c69 -5 75 8 24 57 -41 39 -63 50 -70 34z"/>
 <path d="M11205 380 c-8 -13 20 -24 41 -16 20 8 9 26 -16 26 -10 0 -22 -5 -25 -10z"/>
 <path d="M2745 70 c-4 -6 -10 -24 -15 -40 l-9 -30 645 0 645 0 -3 38 -3 37 -627 3 c-435 2 -628 -1 -633 -8z"/>
 <path d="M11127 69 c-9 -6 -15 -14 -12 -20 9 -14 51 -11 64 4 20 25 -16 37 -52 16z"/>
 </g>

</svg>