<!DOCTYPE svg PUBLIC "-//W3C//DTD SVG 20010904//EN" "http://www.w3.org/TR/2001/REC-SVG-20010904/DTD/svg10.dtd">
<svg version="1.0" xmlns="http://www.w3.org/2000/svg" width="645px" height="585px" viewBox="0 0 6450 5850" preserveAspectRatio="xMidYMid meet">
<g id="layer1" fill="#ff0000" stroke="none">
 <path d="M3187 5818 c-124 -200 -181 -271 -348 -433 -226 -219 -404 -366 -924 -760 -602 -457 -818 -637 -1098 -913 -265 -262 -418 -464 -552 -732 -78 -156 -120 -268 -165 -445 -62 -241 -74 -363 -74 -705 0 -408 22 -516 154 -780 194 -386 450 -639 836 -828 221 -107 295 -126 562 -144 140 -9 222 -9 345 0 232 16 304 37 515 151 369 198 663 531 743 841 12 47 25 88 29 92 3 5 32 -50 64 -121 135 -301 298 -509 527 -674 107 -76 295 -172 414 -211 632 -205 1332 -26 1778 454 136 147 260 342 317 499 124 338 154 885 74 1321 -89 485 -383 959 -871 1403 -207 188 -388 335 -723 585 -444 333 -655 505 -995 812 -216 195 -505 486 -548 553 -21 31 -40 57 -42 57 -3 0 -11 -10 -18 -22z"/>
 </g>

</svg>