<!DOCTYPE svg PUBLIC "-//W3C//DTD SVG 20010904//EN" "http://www.w3.org/TR/2001/REC-SVG-20010904/DTD/svg10.dtd">
<svg version="1.0" xmlns="http://www.w3.org/2000/svg" width="372px" height="594px" viewBox="0 0 3720 5940" preserveAspectRatio="xMidYMid meet">
<g id="layer1" fill="#000000" stroke="none">
 <path d="M1795 5928 c-2 -7 -15 -67 -30 -133 -89 -411 -231 -806 -445 -1240 -174 -352 -268 -510 -682 -1151 -330 -511 -515 -855 -583 -1089 -68 -235 -73 -712 -9 -957 181 -703 819 -1266 1519 -1343 253 -28 598 -13 786 35 268 69 544 214 756 399 282 247 505 614 576 951 54 252 47 685 -13 899 -30 105 -76 212 -181 424 -122 244 -175 333 -433 732 -256 397 -321 500 -431 690 -330 568 -543 1098 -659 1635 l-33 155 -67 3 c-47 2 -67 -1 -71 -10z m198 -798 c193 -540 406 -937 949 -1775 234 -360 288 -454 421 -722 167 -337 204 -469 214 -753 14 -430 -107 -787 -385 -1131 -244 -303 -622 -513 -1062 -591 -118 -20 -462 -17 -585 6 -248 46 -513 157 -705 293 -267 192 -494 492 -604 800 -113 315 -127 689 -36 1010 64 227 246 565 617 1139 384 595 480 756 643 1089 174 353 291 655 385 993 l18 63 43 -148 c23 -81 62 -204 87 -273z"/>
 <path d="M1732 2605 c-185 -42 -360 -184 -444 -361 -85 -180 -73 -410 29 -583 108 -182 306 -303 518 -318 285 -19 564 183 651 472 24 82 25 248 0 330 -43 143 -151 290 -274 371 -128 85 -331 123 -480 89z"/>
 </g>
<g id="layer2" fill="#ff0000" stroke="none">
 <path d="M1856 5581 c-4 -6 -19 -50 -32 -99 -105 -363 -209 -631 -384 -987 -163 -333 -259 -494 -643 -1089 -283 -439 -496 -810 -566 -989 -72 -182 -101 -326 -108 -537 -16 -493 153 -911 511 -1265 142 -140 264 -227 441 -315 150 -74 304 -125 470 -156 123 -23 467 -26 585 -6 522 92 921 350 1203 777 191 289 276 601 264 965 -10 284 -47 416 -214 753 -133 268 -187 362 -421 722 -231 356 -357 558 -462 740 -273 473 -469 925 -585 1346 -38 136 -48 159 -59 140z m215 -3018 c47 -16 110 -46 141 -67 116 -76 212 -209 254 -351 25 -82 24 -248 0 -330 -85 -282 -348 -471 -631 -452 -209 15 -392 124 -498 299 -154 256 -95 604 135 795 66 54 177 110 260 128 98 23 236 14 339 -22z"/>
 </g>

</svg>